<svg width="14" height="15" viewBox="0 0 14 15" fill="none" xmlns="http://www.w3.org/2000/svg">
<path d="M13.3333 2.8335H0.5" stroke="#FF0000" stroke-linecap="round" stroke-linejoin="round"/>
<path d="M5.16663 6.3335V11.0002" stroke="#FF0000" stroke-linecap="round" stroke-linejoin="round"/>
<path d="M8.66663 6.3335V11.0002" stroke="#FF0000" stroke-linecap="round" stroke-linejoin="round"/>
<path d="M12.1666 2.8335V13.9168C12.1666 14.0715 12.1052 14.2199 11.9958 14.3293C11.8864 14.4387 11.738 14.5002 11.5833 14.5002H2.24996C2.09525 14.5002 1.94688 14.4387 1.83748 14.3293C1.72808 14.2199 1.66663 14.0715 1.66663 13.9168V2.8335" stroke="#FF0000" stroke-linecap="round" stroke-linejoin="round"/>
<path d="M9.83333 2.83333V1.66667C9.83333 1.35725 9.71042 1.0605 9.49162 0.841709C9.27283 0.622916 8.97609 0.5 8.66667 0.5H5.16667C4.85725 0.5 4.5605 0.622916 4.34171 0.841709C4.12292 1.0605 4 1.35725 4 1.66667V2.83333" stroke="#FF0000" stroke-linecap="round" stroke-linejoin="round"/>
</svg>
