<svg width="24" height="24" viewBox="0 0 24 24" fill="none" xmlns="http://www.w3.org/2000/svg">
<path d="M11.5 8.423V17.073L9.16925 14.7422L8.4615 15.4615L12 19L15.5385 15.4615L14.8307 14.7422L12.5 17.073V8.423H11.5ZM6.6155 5C6.15517 5 5.77083 5.15417 5.4625 5.4625C5.15417 5.77083 5 6.15517 5 6.6155V9.0385H6V6.6155C6 6.4615 6.06408 6.32042 6.19225 6.19225C6.32042 6.06408 6.4615 6 6.6155 6H17.3845C17.5385 6 17.6796 6.06408 17.8077 6.19225C17.9359 6.32042 18 6.4615 18 6.6155V9.0385H19V6.6155C19 6.15517 18.8458 5.77083 18.5375 5.4625C18.2292 5.15417 17.8448 5 17.3845 5H6.6155Z" fill="#434343"/>
</svg>
