<svg width="24" height="24" viewBox="0 0 24 24" fill="none" xmlns="http://www.w3.org/2000/svg">
<path d="M12.5 15.577V6.927L14.8307 9.25775L15.5385 8.5385L12 5L8.4615 8.5385L9.16925 9.25775L11.5 6.927V15.577H12.5ZM17.3845 19C17.8448 19 18.2292 18.8458 18.5375 18.5375C18.8458 18.2292 19 17.8448 19 17.3845V14.9615H18V17.3845C18 17.5385 17.9359 17.6796 17.8077 17.8077C17.6796 17.9359 17.5385 18 17.3845 18H6.6155C6.4615 18 6.32042 17.9359 6.19225 17.8077C6.06408 17.6796 6 17.5385 6 17.3845V14.9615H5V17.3845C5 17.8448 5.15417 18.2292 5.4625 18.5375C5.77083 18.8458 6.15517 19 6.6155 19H17.3845Z" fill="#434343"/>
</svg>
