<svg width="15" height="19" viewBox="0 0 15 19" fill="none" xmlns="http://www.w3.org/2000/svg">
<path d="M7.09975 8.73075C7.54492 8.73075 7.92483 8.57225 8.2395 8.25525C8.55433 7.93825 8.71175 7.55717 8.71175 7.112C8.71175 6.66683 8.55317 6.28683 8.236 5.972C7.919 5.65733 7.53792 5.5 7.09275 5.5C6.64758 5.5 6.26767 5.6585 5.953 5.9755C5.63817 6.2925 5.48075 6.67358 5.48075 7.11875C5.48075 7.56392 5.63933 7.94392 5.9565 8.25875C6.2735 8.57342 6.65458 8.73075 7.09975 8.73075ZM7.09625 16.677C8.97575 15.041 10.4617 13.3772 11.554 11.6855C12.6463 9.99383 13.1925 8.53075 13.1925 7.29625C13.1925 5.46675 12.6133 3.95675 11.455 2.76625C10.2967 1.57592 8.84375 0.98075 7.09625 0.98075C5.34875 0.98075 3.89583 1.57592 2.7375 2.76625C1.57917 3.95675 1 5.46675 1 7.29625C1 8.53075 1.54617 9.99383 2.6385 11.6855C3.73083 13.3772 5.21675 15.041 7.09625 16.677ZM7.09625 18.0193C4.74625 15.9411 2.97608 14.0029 1.78575 12.2048C0.59525 10.4068 0 8.77058 0 7.29625C0 5.18075 0.688833 3.43583 2.0665 2.0615C3.444 0.687167 5.12058 0 7.09625 0C9.07192 0 10.7485 0.687167 12.126 2.0615C13.5037 3.43583 14.1925 5.18075 14.1925 7.29625C14.1925 8.77058 13.5972 10.4068 12.4067 12.2048C11.2164 14.0029 9.44625 15.9411 7.09625 18.0193Z" fill="#65758B"/>
</svg>
