<svg width="16" height="16" viewBox="0 0 16 16" fill="none" xmlns="http://www.w3.org/2000/svg">
<path d="M14.9307 16C15.2362 16 15.4908 15.9 15.6945 15.7C15.8982 15.5 16 15.25 16 14.95V12.5155C16 12.2475 15.9154 12.01 15.7463 11.803C15.5769 11.5958 15.3563 11.4589 15.0845 11.3923L12.9808 10.9615C12.7346 10.9282 12.5099 10.9394 12.3067 10.9952C12.1036 11.0509 11.9206 11.1666 11.7578 11.3422L9.61925 13.5193C8.81925 13.0756 8.08467 12.6041 7.4155 12.1048C6.74617 11.6054 6.12117 11.0653 5.5405 10.4845C4.97767 9.91283 4.44783 9.30742 3.951 8.66825C3.45417 8.02908 3.00067 7.33708 2.5905 6.59225L4.7845 4.54625C4.9435 4.41292 5.05442 4.24175 5.11725 4.03275C5.18008 3.82375 5.18842 3.5795 5.14225 3.3L4.64625 0.9155C4.57442 0.6475 4.43717 0.427917 4.2345 0.25675C4.032 0.0855838 3.79483 0 3.523 0H1.05C0.75 0 0.5 0.101833 0.3 0.305499C0.0999994 0.509166 0 0.76375 0 1.06925C0 2.75508 0.422084 4.48008 1.26625 6.24425C2.11058 8.00842 3.29233 9.65325 4.8115 11.1788C6.33083 12.7044 7.97575 13.8894 9.74625 14.7337C11.5167 15.5779 13.2449 16 14.9307 16ZM2.127 5.65375C1.79233 4.90125 1.52758 4.15317 1.33275 3.4095C1.13792 2.666 1.03083 1.95258 1.0115 1.26925C1.0115 1.19225 1.03717 1.12817 1.0885 1.077C1.13983 1.02567 1.20392 1 1.28075 1H3.327C3.4295 1 3.51283 1.02567 3.577 1.077C3.641 1.12817 3.68583 1.20508 3.7115 1.30775L4.1615 3.427C4.18717 3.50383 4.19042 3.58717 4.17125 3.677C4.15192 3.76667 4.11025 3.83717 4.04625 3.8885L2.127 5.65375ZM10.577 13.977L12.4577 12.0577C12.5217 11.9936 12.5827 11.9519 12.6405 11.9327C12.6982 11.9134 12.7654 11.9166 12.8423 11.9423L14.6923 12.327C14.7949 12.3527 14.8718 12.3975 14.923 12.4615C14.9743 12.5257 15 12.609 15 12.7115V14.7193C15 14.7961 14.9743 14.8602 14.923 14.9115C14.8718 14.9628 14.8077 14.9885 14.7307 14.9885C14.1627 14.977 13.4973 14.8892 12.7345 14.725C11.9718 14.5608 11.2527 14.3115 10.577 13.977Z" fill="#65758B"/>
</svg>
